<svg width="263" height="367" viewBox="0 0 263 367" fill="none" xmlns="http://www.w3.org/2000/svg">
<path d="M120.22 105.924C105.773 109.829 97.6786 116.557 96.8329 125.361C95.9853 134.184 99.0765 137.549 113.76 143.785C140.948 155.332 150.889 171.026 145.105 193.266C140.853 209.612 147.368 225.493 161.078 232.203C166.072 234.648 168.04 234.992 179.938 235.495C195.311 236.147 198.465 237.302 205.392 244.819C212.143 252.147 216.272 262.249 217.368 274.129C218.356 284.822 219.395 288.966 222.343 293.964C226.385 300.818 231.607 301.874 239.331 297.397C248.932 291.833 256.505 282.341 260.541 270.815C263.728 261.716 263.836 244.927 260.754 238.252C257.581 231.386 254.775 230.286 238.791 229.64C223.915 229.04 221.991 228.332 217.735 221.9C214.618 217.186 211.378 208.038 211.348 203.856C211.244 189.917 201.622 175.406 189.468 170.857C176.734 166.09 170.021 161.148 165.932 153.533C162.928 147.938 163.055 136.858 166.205 129.686C168.267 124.991 168.37 124.086 167.265 120.363C165.594 114.734 159.256 108.807 152.474 106.53C144.231 103.763 129.255 103.482 120.22 105.924Z" fill="#F38A00"/>
<path d="M80.8167 162.867C65.3872 165.479 56.6983 178.815 60.2712 194.4C60.9343 197.294 63.435 203.775 65.8277 208.802C72.1985 222.188 73.4257 230.52 70.4925 240.457C69.1553 244.987 67.6759 246.998 60.6459 253.841C50.2039 264.006 48.0604 268.318 48.0604 279.157C48.0604 288.654 50.1519 293.862 56.4383 300.025C63.1073 306.563 68.1547 308.609 77.4616 308.55C84.8752 308.503 85.7984 308.244 94.139 303.862C104.932 298.192 112.611 296.59 121.734 298.102C130.558 299.564 138.259 303.392 144.652 309.493C153.029 317.486 157.251 319.29 165.871 318.561C180.836 317.296 191.922 309.963 195.111 299.219C197.162 292.307 197.06 288.643 194.611 281.334C188.629 263.492 170.608 254.166 156.836 261.787C139.19 271.551 140.241 271.206 127.984 271.258C118.217 271.299 116.043 271.002 111.797 269.045C105.298 266.049 101.71 262.539 99.0589 256.584C93.1992 243.421 96.1855 226.681 106.325 215.854C115.747 205.794 120.136 196.916 120.136 187.919C120.136 178.455 115.436 171.39 106.102 166.822C97.0311 162.384 90.0874 161.297 80.8167 162.867Z" fill="#F38A00"/>
<path d="M46.0689 131.126C32.8937 138.107 22.644 155.371 26.3739 164.302C27.9013 167.959 32.1992 170.708 36.3911 170.708C47.3638 170.708 64.2178 151.645 64.2178 139.233C64.2178 135.23 63.7901 134.21 61.1992 132.029C57.6253 129.02 50.8112 128.614 46.0689 131.126Z" fill="#F38A00"/>
<path d="M13.6323 201.993C9.8034 204.328 5.15433 211.618 2.2868 219.78C0.445418 225.023 0.0392742 228.261 0.00395736 237.96C-0.0352836 248.74 0.177598 250.183 2.47123 254.645C10.3175 269.907 26.5024 265.674 33.913 246.421C35.468 242.381 36.1723 237.937 36.5147 230.004C37.1102 216.181 35.3846 209.351 29.9114 203.876C26.6201 200.582 25.6361 200.151 21.4138 200.155C18.4825 200.157 15.4776 200.867 13.6323 201.993Z" fill="#F38A00"/>
<path d="M16.3664 294.916C10.7648 298.841 17.009 313.166 30.8169 328.069C35.6651 333.302 39.3489 335.59 42.9247 335.59C45.7638 335.59 48.5215 332.78 48.5215 329.889C48.5215 321.224 31.794 297.522 23.4337 294.342C20.0208 293.044 18.9083 293.134 16.3664 294.916Z" fill="#F38A00"/>
<path d="M97.6894 330.665C88.0498 332.155 83.6784 333.858 79.6523 337.689C75.9469 341.217 75.7566 341.674 76.2373 345.941C77.2154 354.623 85.5747 361.336 100.006 365.028C122.287 370.729 140.197 363.653 140.201 349.148C140.204 342.098 130.554 333.92 119.646 331.728C111.975 330.186 103.452 329.774 97.6894 330.665Z" fill="#F38A00"/>
<path d="M193.713 327.927C187.452 330.305 183.902 332.555 178.672 337.462C173.821 342.011 172.13 345.331 172.13 350.308C172.13 361.219 186.676 363.962 201.889 355.92C214.437 349.287 220.543 338.659 216.331 330.785C213.605 325.688 203.101 324.361 193.713 327.927Z" fill="#F38A00"/>
<path d="M210.052 145.023C206.508 148.94 209.257 158.589 217.213 170.152C220.925 175.546 229.291 183.249 232.243 183.99C240.669 186.106 244.957 181.979 242.703 173.925C240.323 165.422 227.362 148.633 220.043 144.571C216.706 142.72 211.94 142.936 210.052 145.023Z" fill="#F38A00"/>
<path d="M53.9171 1.26211C44.5179 5.63834 41.1648 17.8121 45.6765 31.1783C54.2339 56.5279 91.8454 89.4698 116.997 93.6449C119.732 94.0993 124.497 93.7273 130.543 92.5878C138.822 91.0283 140.497 90.9832 145.454 92.1884C157.447 95.1042 163.5 93.3298 176.629 83.0532C189.56 72.9306 199.57 58.1561 199.589 49.1582C199.597 45.6427 199.062 44.3885 196.552 42.0428C190.56 36.4427 180.906 38.8885 170.981 48.5193C165.79 53.557 154.472 68.0912 154.472 69.7194C154.472 71.3662 148.161 74.5196 144.858 74.5235C140.585 74.5284 136.142 72.1465 135.274 69.3857C129.911 52.3047 111.282 28.6639 91.196 13.4467C76.4139 2.24747 61.9526 -2.47914 53.9171 1.26211Z" fill="#118100"/>
</svg>
