<svg height="70" viewBox="0 0 268 70" fill="none" xmlns="http://www.w3.org/2000/svg">

<g clip-path="url(#clip0_68_31)">

<path d="M30.9183 23.9351C30.9183 18.4193 16.3972 20.2204 18.8737 25.3984C19.7742 26.6367 23.0387 27.0869 24.3895 28.4377C28.1042 30.3514 28.5919 34.7039 28.1042 36.3174C26.213 41.4504 30.1304 44.3096 32.2691 44.3096H35.3084C39.3608 44.4897 41.7247 49.6002 41.7247 52.1893C41.7247 55.6788 43.1881 57.1765 44.2012 56.6919C50.4149 53.7202 49.717 45.5478 47.9159 44.8724C47.6157 44.7224 46.34 44.4672 43.6384 44.6473C40.9368 44.8274 39.5859 41.3454 39.2482 39.5818C39.2482 34.9666 35.9838 33.457 35.7587 33.3906C28.7345 31.3194 29.6801 26.299 30.9183 23.9351Z" fill="#FCA311"/>

<path d="M19.0988 41.0452C29.7927 30.3514 5.14059 27.0869 13.1328 40.5949C13.9583 42.396 14.8213 46.5835 11.6695 48.9248C8.51759 51.2662 9.11794 54.328 9.75582 55.7914C12.4574 59.6637 15.9095 58.4555 17.2978 57.3673C21.4402 55.026 25.4776 56.842 26.9785 58.0427C28.5094 59.9339 29.7927 60.3316 30.2429 60.2941C40.5991 60.2941 35.9838 47.9117 29.6801 50.6133C28.5094 51.5139 26.941 52.1893 26.3031 52.4144C15.4967 54.4406 15.947 43.9719 19.0988 41.0452Z" fill="#FCA311"/>

<path d="M40.1488 28.1C38.9199 28.7827 43.0755 35.5294 45.1017 34.6289C46.4525 33.7283 41.7247 27.2245 40.1488 28.1Z" fill="#FCA311"/>

<path d="M14.7088 65.5847C15.212 63.4459 24.1643 62.658 25.6277 66.4852C26.078 71.6633 13.8082 69.412 14.7088 65.5847Z" fill="#FCA311"/>

<path d="M2.88926 56.9171C1.87616 57.6964 6.94166 64.5716 7.95476 63.4459C8.96786 62.8831 4.35262 55.7914 2.88926 56.9171Z" fill="#FCA311"/>

<path d="M5.36574 31.5896C3.67723 30.1543 8.02231 24.1602 10.6564 25.6236C12.6826 26.7492 7.7495 33.6158 5.36574 31.5896Z" fill="#FCA311"/>

<path d="M3.67723 38.9064C7.16679 39.1315 6.4914 50.1631 1.98873 49.8254C-1.72597 48.6997 0.300241 38.3436 3.67723 38.9064Z" fill="#FCA311"/>

<path d="M33.2822 67.7235C31.5937 65.6973 37.6723 61.5323 40.1488 63.4459C41.9499 66.1475 34.9708 69.7497 33.2822 67.7235Z" fill="#FCA311"/>

<path d="M36.6967 7.73222C40.524 9.99378 32.0815 18.3708 28.8752 17.962C28.8279 17.9623 28.5614 17.9411 28.515 17.9298C28.3362 17.8861 28.1646 17.7708 28.0014 17.6983C27.5151 17.3741 27.5211 16.7128 27.8515 15.7173C28.0594 15.0909 28.3957 14.3783 28.8184 13.6388C30.709 10.3314 34.2202 6.26885 36.6967 7.73222Z" fill="#69AD00"/>

<path d="M25.6522 15.4408C25.6909 14.8784 25.6142 14.2728 25.4401 13.6388C23.6697 7.19177 12.495 -3.41188 8.6907 1.07501C4.09615 6.49398 17.4478 18.5386 22.7522 17.9298C23.0652 17.9513 23.3661 17.9422 23.6526 17.9C23.7426 17.8868 23.831 17.8703 23.918 17.8504C24.2071 17.7845 24.4797 17.6816 24.7332 17.5387C25.308 16.9556 25.5971 16.242 25.6522 15.4408Z" fill="#69AD00"/>

<path d="M25.6522 15.4408C25.5971 16.242 25.308 16.9556 24.7332 17.5387C24.4797 17.6816 24.2071 17.7845 23.918 17.8504C24.7655 17.6732 26.2006 17.0815 28.515 17.9298C28.3362 17.8861 28.1646 17.7708 28.0014 17.6983C27.5151 17.3741 27.5211 16.7128 27.8515 15.7173C26.8942 16.3412 26.1739 15.981 25.6522 15.4408Z" fill="#69AD00"/>

<path d="M25.6522 15.4408C26.1739 15.981 26.8942 16.3412 27.8515 15.7173C28.0594 15.0909 28.3957 14.3783 28.8184 13.6388C27.3787 14.7619 25.9663 14.1068 25.4401 13.6388C25.6142 14.2728 25.6909 14.8784 25.6522 15.4408Z" fill="#69AD00"/>

<path d="M70.2345 58.2438V19.8304H80.1017C83.6898 19.8304 86.3544 20.8857 88.0957 22.9964C89.8545 25.0894 90.734 27.7804 90.734 31.0695C90.734 34.3586 89.8545 37.0672 88.0957 39.1954C86.3544 41.306 83.6898 42.3613 80.1017 42.3613H73.1366V58.2438H70.2345ZM73.1366 39.7494H80.1017C82.951 39.7494 84.9473 38.9052 86.0906 37.2167C87.2338 35.5282 87.8055 33.4879 87.8055 31.0959C87.8055 28.6863 87.2338 26.646 86.0906 24.9751C84.9473 23.3042 82.951 22.4599 80.1017 22.4423H73.1366V39.7494Z" fill="#0D1B2A"/>

<path d="M94.9816 40.066V38.0082C94.9816 31.3421 96.204 26.558 98.6488 23.6559C101.094 20.7538 104.295 19.3028 108.252 19.3028C112.227 19.3028 115.437 20.7538 117.882 23.6559C120.327 26.558 121.549 31.3421 121.549 38.0082V40.066C121.549 46.7321 120.327 51.5162 117.882 54.4183C115.437 57.3204 112.227 58.7714 108.252 58.7714C104.295 58.7714 101.094 57.3204 98.6488 54.4183C96.204 51.5162 94.9816 46.7321 94.9816 40.066ZM97.9365 40.066C97.9365 45.923 98.8687 50.0739 100.733 52.5187C102.597 54.9459 105.104 56.1595 108.252 56.1595C111.4 56.1595 113.907 54.9459 115.771 52.5187C117.636 50.0739 118.568 45.923 118.568 40.066V38.0082C118.568 32.1512 117.636 28.0091 115.771 25.5819C113.907 23.1371 111.4 21.9147 108.252 21.9147C105.104 21.9147 102.597 23.1371 100.733 25.5819C98.8687 28.0091 97.9365 32.1512 97.9365 38.0082V40.066Z" fill="#0D1B2A"/>

<path d="M127.274 58.2438V19.8304H130.572L146.745 50.6719C147.044 51.2348 147.299 51.7976 147.51 52.3604C147.738 52.9233 147.932 53.4773 148.09 54.0225H148.222C148.187 53.4245 148.161 52.8089 148.143 52.1757C148.143 51.525 148.143 50.9006 148.143 50.3026V19.8304H150.808V58.2438H147.615L131.337 27.1912C131.056 26.6636 130.801 26.1095 130.572 25.5291C130.343 24.9487 130.15 24.3859 129.992 23.8406H129.86C129.895 24.4386 129.912 25.0806 129.912 25.7666C129.93 26.4525 129.939 27.1033 129.939 27.7189V58.2438H127.274Z" fill="#0D1B2A"/>

<path d="M156.19 48.0336V46.0549H160.965V47.7698C160.965 50.2146 161.607 52.035 162.891 53.2311C164.192 54.4095 165.995 54.9987 168.299 54.9987C170.586 54.9987 172.345 54.4183 173.576 53.2574C174.807 52.0966 175.423 50.54 175.423 48.5877C175.423 46.8112 174.86 45.3954 173.734 44.3401C172.609 43.2672 170.463 42.1415 167.297 40.9631C163.744 39.6439 161.106 38.1753 159.382 36.5571C157.676 34.9214 156.823 32.5469 156.823 29.4338C156.823 26.4085 157.825 23.9637 159.831 22.0994C161.836 20.235 164.606 19.3028 168.141 19.3028C171.571 19.3028 174.323 20.1998 176.399 21.9938C178.474 23.7703 179.512 26.3118 179.512 29.6185V31.0695H174.79V29.8823C174.79 27.7717 174.227 26.1271 173.101 24.9487C171.975 23.7527 170.34 23.1547 168.194 23.1547C165.907 23.1547 164.245 23.6911 163.208 24.764C162.17 25.8193 161.651 27.2704 161.651 29.1172C161.651 30.8233 162.231 32.1864 163.392 33.2065C164.553 34.2266 166.734 35.3259 169.935 36.5044C173.47 37.7707 176.074 39.3097 177.744 41.1214C179.415 42.9154 180.251 45.2898 180.251 48.2447C180.251 51.4458 179.169 54.005 177.006 55.9221C174.842 57.8217 171.958 58.7714 168.352 58.7714C164.711 58.7714 161.774 57.8656 159.54 56.054C157.307 54.2424 156.19 51.5689 156.19 48.0336Z" fill="#FCA311"/>

<path d="M185.079 58.2438V19.8304H190.144V37.6124L203.784 19.8304H209.14L190.144 44.1554V58.2438H185.079ZM204.602 58.2438L191.833 38.6941L194.972 34.7631L210.406 58.2438H204.602Z" fill="#FCA311"/>

<path d="M210.644 58.2438L222.358 19.8304H228.558L240.166 58.2438H235.127L226.289 28.2202C226.078 27.499 225.893 26.8746 225.735 26.347C225.594 25.8017 225.445 25.2477 225.286 24.6849H225.207C225.049 25.2477 224.891 25.8017 224.732 26.347C224.591 26.8746 224.416 27.499 224.205 28.2202L215.577 58.2438H210.644ZM216.052 48.3502L216.949 44.7094H233.729L234.679 48.3502H216.052Z" fill="#FCA311"/>

<path d="M242.91 58.2438V19.8304H248.239L262.222 47.3477C262.486 47.9105 262.723 48.4909 262.935 49.089C263.163 49.687 263.357 50.2674 263.515 50.8302H263.647C263.612 50.2322 263.585 49.6078 263.568 48.957C263.568 48.3063 263.568 47.6819 263.568 47.0839V19.8304H268V58.2438H262.855L248.688 30.4891C248.424 29.9614 248.178 29.4074 247.949 28.827C247.738 28.229 247.553 27.6573 247.395 27.1121H247.263C247.298 27.7101 247.316 28.3345 247.316 28.9853C247.333 29.6185 247.342 30.2428 247.342 30.8584V58.2438H242.91Z" fill="#FCA311"/>

</g>

<defs>

<clipPath id="clip0_68_31">

<rect width="268" height="69.5118" fill="white"/>

</clipPath>

</defs>

</svg>