<svg width="308" height="210" viewBox="0 0 3080 2104" fill="none" xmlns="http://www.w3.org/2000/svg">
<path fill-rule="evenodd" clip-rule="evenodd" d="M2454.29 1989.19C2809.99 1931.06 3089.56 1830.19 3078.73 1763.89C3067.89 1697.59 2770.75 1690.97 2415.05 1749.1C2388.39 1753.45 2362.16 1758.05 2336.44 1762.86C2358.52 1775.96 2370.31 1789.75 2370.31 1804C2370.31 1867.48 2136.26 1922.02 1801.63 1945.79C1793 1955.83 1789.15 1965.43 1790.62 1974.4C1801.45 2040.69 2098.59 2047.32 2454.29 1989.19Z" fill="black" fill-opacity="0.19"/>
<path fill-rule="evenodd" clip-rule="evenodd" d="M591.369 2008.4C301.385 1961.01 75.0891 1868.84 85.9239 1802.54C95.4949 1743.98 286.9 1725.19 531.308 1754.27C498.889 1769.87 481.306 1786.6 481.306 1804C481.306 1872.48 753.688 1930.56 1130.9 1950.82C1135.48 1958.86 1137.27 1966.68 1136.05 1974.16C1125.22 2040.46 881.354 2055.79 591.369 2008.4Z" fill="black" fill-opacity="0.19"/>
<path d="M630.606 1768.31C887.854 1810.35 1094.98 1887.62 1130.9 1950.82C753.688 1930.56 481.306 1872.48 481.306 1804C481.306 1786.6 498.889 1769.87 531.308 1754.27C563.582 1758.11 596.78 1762.78 630.606 1768.31Z" fill="black" fill-opacity="0.19"/>
<path fill-rule="evenodd" clip-rule="evenodd" d="M2336.44 1762.86C2065.48 1813.48 1852.02 1887.15 1801.63 1945.79C1686.46 1953.97 1559.37 1958.5 1425.81 1958.5C1322.82 1958.5 1223.69 1955.8 1130.9 1950.82C1094.98 1887.62 887.854 1810.35 630.606 1768.31C596.78 1762.78 563.582 1758.11 531.308 1754.27C657.87 1693.34 1010.54 1649.5 1425.81 1649.5C1860.34 1649.5 2226.33 1697.5 2336.44 1762.86Z" fill="black" fill-opacity="0.19"/>
<path fill-rule="evenodd" clip-rule="evenodd" d="M1801.63 1945.79C1852.02 1887.15 2065.48 1813.48 2336.44 1762.86C2358.52 1775.96 2370.31 1789.75 2370.31 1804C2370.31 1867.48 2136.26 1922.02 1801.63 1945.79Z" fill="black" fill-opacity="0.19"/>
<path d="M2161.81 485L2153.81 1433.5C2153.81 1461.11 2131.61 1483.5 2104.24 1483.5H781.847C754.473 1483.5 732.282 1461.11 732.282 1433.5V1420.5L2149.31 439.5C2156.13 448.067 2161.81 473.157 2161.81 485Z" fill="#434343"/>
<path fill-rule="evenodd" clip-rule="evenodd" d="M2149.31 439.5L732.282 1420.5L727.806 488C727.806 460.386 754.473 420.5 781.847 420.5H2104.24C2119.87 420.5 2140.22 428.094 2149.31 439.5Z" fill="#434343"/>
<path fill-rule="evenodd" clip-rule="evenodd" d="M2161.31 490.5V1438.5C2161.31 1466.11 2138.92 1488.5 2111.31 1488.5H983.306L1842.31 440.5H2111.31C2122.34 440.5 2126.54 442.448 2134.81 448.5C2147.23 457.597 2161.31 473.919 2161.31 490.5Z" fill="#D9D9D9"/>
<path fill-rule="evenodd" clip-rule="evenodd" d="M1842.31 440.5L983.306 1488.5H777.306C749.691 1488.5 727.306 1466.11 727.306 1438.5V490.501C727.306 462.886 749.691 440.5 777.306 440.5H1842.31Z" fill="#E0E0E0"/>
<path fill-rule="evenodd" clip-rule="evenodd" d="M2121.31 498.5V1372.5C2121.31 1386.31 2110.11 1397.5 2096.31 1397.5H1053.31L1811.81 473.5H2096.31C2110.11 473.5 2121.31 484.693 2121.31 498.5Z" fill="#F0CA84"/>
<path fill-rule="evenodd" clip-rule="evenodd" d="M1811.81 473.5L1053.31 1397.5H793.306C779.499 1397.5 768.306 1386.31 768.306 1372.5V498.5C768.306 484.693 779.499 473.5 793.306 473.5H1811.81Z" fill="#F9D28B"/>
<path fill-rule="evenodd" clip-rule="evenodd" d="M1096.05 1701.5C1080.86 1701.5 1069.18 1714.93 1071.29 1729.96L1083.6 1818H1808.72L1819.05 1729.4C1820.79 1714.54 1809.18 1701.5 1794.22 1701.5H1096.05Z" fill="#0D1B2A"/>
<path d="M1777.55 1894.5H1116.05C1103.58 1894.5 1093.02 1885.31 1091.29 1872.96L1083.6 1818H1808.72L1802.38 1872.4C1800.91 1885 1790.24 1894.5 1777.55 1894.5Z" fill="#313131"/>
<path fill-rule="evenodd" clip-rule="evenodd" d="M1094.81 1701.5C1078.71 1701.5 1066.8 1716.5 1070.46 1732.18L1090.59 1818.5H1798.27L1818.23 1732.13C1821.85 1716.46 1809.95 1701.5 1793.87 1701.5H1094.81Z" fill="#D9D9D9"/>
<path d="M1766.61 1869.5H1122.32C1110.7 1869.5 1100.62 1861.49 1097.98 1850.18L1090.59 1818.5H1798.27L1790.97 1850.13C1788.35 1861.47 1778.25 1869.5 1766.61 1869.5Z" fill="#E0E0E0"/>
<path d="M1494.31 1769.5C1467.31 1788 1420.81 1782.5 1394.31 1769.5V1565.5C1444.31 1564.7 1481.81 1535.17 1494.31 1520.5V1769.5Z" fill="#C7C7C7"/>
<path fill-rule="evenodd" clip-rule="evenodd" d="M1394.31 1488.5H1494.31V1520.5C1481.81 1535.17 1444.31 1564.7 1394.31 1565.5V1488.5Z" fill="#BDBDBD"/>
<circle cx="1444.81" cy="1443" r="19.5" fill="#0D1B2A"/>
<path d="M2003.31 773.005V1889.51C2003.31 1924.21 2075.74 1968.65 2126.81 1957.01L2712 1794.3C2743.25 1787.18 2764.13 1768.21 2764.13 1746.99L2026.31 732.005C2026.31 732.005 2003.31 746.505 2003.31 773.005Z" fill="black"/>
<path fill-rule="evenodd" clip-rule="evenodd" d="M2829.31 715.929C2829.31 684.372 2776.73 634.974 2728.31 641.005L2066.75 715.929C2050.83 717.912 2037.08 725.052 2026.31 732.005L2764.13 1746.99L2829.31 715.929Z" fill="#434343"/>
<path d="M2038.84 1907.25C2038.84 1941.8 2094.68 1965.94 2147.81 1954.35L2776.08 1817.27C2808.59 1810.18 2830.31 1791.32 2830.31 1770.17V757.505L2038.84 1907.25Z" fill="#D9D9D9"/>
<path fill-rule="evenodd" clip-rule="evenodd" d="M2038.84 791.757V1907.25L2830.31 757.505V716.799C2830.31 685.35 2783.49 661.71 2733.12 667.72L2104.85 742.679C2066.51 747.252 2038.84 767.827 2038.84 791.757Z" fill="#E0E0E0"/>
<path d="M2109.02 1810.51L2786.25 821.005V1701.29C2786.25 1708.37 2781.29 1714.49 2774.36 1715.96L2711.18 1729.37L2127.13 1853.28C2117.8 1855.26 2109.02 1848.15 2109.02 1838.61V1810.51Z" fill="#F0CA84"/>
<path d="M2109.02 849.056C2109.02 841.441 2114.72 835.034 2122.29 834.156L2769.52 759.065C2778.43 758.032 2786.25 764.996 2786.25 773.965V821.005L2109.02 1810.51V888.125V849.056Z" fill="#F9D28B"/>
<path d="M2528.41 747.744C2528.41 740.483 2522.09 734.838 2514.87 735.653L2352.08 754.041C2345.62 754.77 2340.74 760.231 2340.74 766.728C2340.74 774.384 2347.43 780.319 2355.04 779.404L2517.69 759.825C2523.81 759.089 2528.41 753.902 2528.41 747.744Z" fill="#3C3C3C"/>
<path d="M838.306 771.253V1886.74C838.306 1921.3 770.36 1968.71 737.806 1957.12L386.535 1796.77C366.611 1789.68 353.306 1770.81 353.306 1749.67L823.806 736.041C832.836 745.151 838.306 757.661 838.306 771.253Z" fill="black"/>
<path fill-rule="evenodd" clip-rule="evenodd" d="M314.306 705.62C314.306 674.172 381.993 641.205 412.861 647.215L797.861 722.174C808.009 724.15 816.937 729.112 823.806 736.041L353.306 1749.67L314.306 705.62Z" fill="#434343"/>
<path d="M796.306 793.253V1908.74C796.306 1943.3 762.089 1967.44 729.535 1955.85L344.535 1818.77L796.306 793.253Z" fill="#D9D9D9"/>
<path fill-rule="evenodd" clip-rule="evenodd" d="M796.306 793.253L344.535 1818.77C324.611 1811.68 311.306 1792.81 311.306 1771.67V718.294C311.306 686.846 339.992 663.205 370.861 669.215L755.861 744.174C779.35 748.747 796.306 769.323 796.306 793.253Z" fill="#E0E0E0"/>
<path fill-rule="evenodd" clip-rule="evenodd" d="M753.305 889.62L384.305 1730.86L348.398 1718.43C342.357 1716.34 338.305 1710.65 338.305 1704.26V776.726C338.305 767.323 346.857 760.239 356.096 761.988L741.095 834.88C748.177 836.221 753.305 842.41 753.305 849.618V889.62Z" fill="#F9D28B"/>
<path d="M753.305 1837.55C753.305 1847.86 743.141 1855.1 733.397 1851.73L384.305 1730.86L753.305 889.62V1837.55Z" fill="#F0CA84"/>
<path d="M496.306 750.108C496.306 742.571 503.141 736.88 510.553 738.246L600.991 754.916C606.967 756.017 611.306 761.228 611.306 767.306C611.306 775.238 604.063 781.197 596.278 779.668L506.042 761.943C500.385 760.832 496.306 755.873 496.306 750.108Z" fill="#3C3C3C"/>
<path d="M1110.31 2068C829.472 2106 221.706 2123.8 37.3058 1891C-26.1942 1777 37.3058 1694 197.806 1667V658C219.639 595.667 294.306 497.5 457.306 552L623.806 600V383.5C623.806 317 682.806 268 797.806 268H2201.31C2298.81 267.667 2536.61 261.4 2657.81 187C2731.29 141.891 2681.36 99.5266 2604.76 69.2235M2604.76 69.2235C2555.02 49.5469 2494.04 34.9556 2448.31 28.0004C2352.14 17.8338 2181.21 13.1004 2266.81 75.5004C2361.79 105.79 2497.94 93.1861 2604.76 69.2235ZM2604.76 69.2235C2679.56 52.4431 2739.98 30.0926 2761.81 13.0005" stroke="#F9D28B" stroke-width="26" stroke-linecap="round"/>
</svg>
